<?xml version="1.0" standalone="no"?>
<!DOCTYPE svg PUBLIC "-//W3C//DTD SVG 20010904//EN"
 "http://www.w3.org/TR/2001/REC-SVG-20010904/DTD/svg10.dtd">
<svg version="1.0" xmlns="http://www.w3.org/2000/svg"
 width="647.000000pt" height="647.000000pt" viewBox="0 0 647.000000 647.000000"
 preserveAspectRatio="xMidYMid meet">
<metadata>
Created by potrace 1.14, written by Peter Selinger 2001-2017
</metadata>
<g transform="translate(0.000000,647.000000) scale(0.100000,-0.100000)"
fill="#000000" stroke="none">
<path d="M3105 6342 c-242 -16 -505 -105 -715 -241 -30 -19 -57 -38 -60 -41
-3 -3 -26 -21 -52 -40 -27 -18 -48 -37 -48 -42 0 -4 -4 -8 -9 -8 -13 0 -115
-101 -182 -180 -61 -71 -133 -174 -164 -232 -11 -21 -23 -38 -27 -38 -5 0 -7
-3 -6 -7 0 -5 -16 -44 -36 -88 -52 -111 -67 -149 -71 -170 0 -5 -4 -17 -7 -25
-14 -36 -31 -106 -29 -117 1 -7 -2 -13 -6 -13 -4 0 -9 -12 -9 -27 -1 -16 -4
-41 -8 -58 -13 -63 -19 -134 -18 -245 0 -63 1 -117 2 -120 2 -5 6 -40 14 -115
2 -16 6 -37 9 -45 6 -18 26 -96 32 -125 2 -11 11 -37 19 -57 9 -21 16 -40 16
-43 1 -9 14 -41 52 -125 22 -47 40 -87 40 -90 1 -3 6 -9 10 -15 19 -24 57 -85
52 -85 -3 0 1 -7 8 -15 20 -22 31 -36 67 -87 19 -27 38 -48 43 -48 4 0 8 -5 8
-12 0 -12 161 -174 228 -228 60 -48 167 -120 232 -154 30 -17 60 -35 65 -40 6
-6 11 -47 11 -91 l0 -80 99 0 99 0 3 75 c3 89 5 100 12 100 3 0 7 10 8 23 2
23 10 62 13 62 4 0 11 43 13 77 1 21 4 38 7 38 9 0 14 263 6 330 -12 101 -18
136 -26 151 -5 9 -11 31 -12 48 -1 17 -5 31 -9 31 -7 0 -23 50 -21 63 1 4 -2
7 -8 7 -6 0 -9 4 -8 8 2 5 -24 53 -57 106 -73 119 -72 139 5 164 75 25 74 87
-2 166 -20 22 -44 53 -52 71 -41 86 37 180 115 139 50 -25 70 -73 46 -111 -5
-8 -4 -13 2 -13 7 0 8 -6 3 -17 -45 -92 -57 -148 -38 -176 13 -17 49 -28 100
-32 17 -2 36 -3 43 -4 6 0 10 -12 8 -26 -1 -14 1 -28 5 -30 12 -7 26 -108 30
-223 2 -58 7 -75 21 -82 45 -24 71 -5 79 59 3 28 4 51 1 51 -3 0 -6 24 -6 53
1 28 -3 60 -8 71 -7 14 -6 16 4 11 8 -6 10 -4 4 5 -5 8 -9 39 -11 69 -1 31 -5
70 -9 86 -19 79 -13 88 51 74 45 -9 89 12 102 50 7 19 7 31 1 31 -5 0 -9 7 -9
16 0 15 -28 73 -41 84 -3 3 -14 21 -25 40 -10 19 -22 38 -27 41 -4 3 -9 28
-11 55 -3 53 8 70 69 101 69 36 132 15 161 -54 27 -62 9 -125 -54 -191 -16
-17 -33 -49 -37 -70 -2 -9 -4 -21 -5 -27 -7 -36 46 -85 93 -85 7 0 29 -5 46
-11 28 -10 32 -15 28 -38 -9 -45 -15 -66 -30 -103 -9 -20 -13 -39 -9 -42 3 -3
1 -6 -4 -6 -5 0 -11 -12 -12 -26 -1 -15 -6 -32 -10 -38 -9 -13 -8 -79 2 -122
9 -38 32 -61 69 -68 44 -8 81 53 93 154 1 14 6 45 9 70 6 43 12 94 14 132 1
15 5 15 32 6 72 -25 105 31 66 112 -13 27 -21 52 -18 56 3 3 6 11 6 17 1 32
31 95 58 125 36 38 67 41 100 10 27 -26 47 -85 25 -72 -10 5 -10 4 -1 -6 9
-10 9 -19 -3 -41 -15 -30 -60 -79 -72 -79 -4 0 -17 -15 -29 -33 -36 -53 -26
-105 23 -121 45 -14 68 -62 64 -131 -1 -11 -2 -30 -3 -42 0 -13 -4 -23 -7 -23
-3 0 -6 -9 -7 -20 -1 -10 -8 -34 -16 -52 -14 -31 -28 -67 -32 -78 -1 -3 -9
-22 -18 -44 -9 -21 -17 -47 -17 -57 0 -10 -5 -21 -10 -24 -6 -4 -8 -11 -5 -16
4 -5 1 -9 -5 -9 -6 0 -9 -4 -6 -9 4 -5 2 -22 -4 -36 -6 -15 -12 -42 -14 -59
-2 -17 -8 -56 -12 -86 -17 -129 -3 -309 36 -460 6 -25 12 -68 13 -96 l1 -52
101 0 101 -1 -2 73 c-1 41 1 78 5 83 3 5 41 28 83 51 201 110 385 267 523 447
64 84 83 113 78 119 -4 3 -1 6 5 6 12 0 58 79 54 93 -1 4 2 7 8 7 5 0 10 7 10
15 0 8 5 15 10 15 6 0 10 5 10 10 0 6 18 53 41 106 23 53 43 104 44 113 2 9 4
16 5 16 1 0 3 7 5 15 2 8 9 33 15 55 18 67 28 121 37 195 9 69 8 299 -1 365
-3 28 -8 64 -10 80 -2 17 -8 42 -14 56 -6 15 -8 29 -5 32 3 3 1 12 -3 19 -5 7
-9 18 -9 23 -1 6 -7 30 -15 55 -7 25 -14 48 -16 53 -1 4 -3 9 -4 12 -1 3 -3 9
-4 14 0 5 -4 13 -8 17 -5 4 -8 16 -8 26 0 10 -4 18 -10 18 -5 0 -10 7 -10 16
0 21 -88 187 -139 263 -54 78 -126 165 -202 241 -64 64 -215 184 -255 202 -13
6 -24 15 -24 20 0 5 -4 7 -9 4 -5 -4 -11 -2 -13 2 -5 13 -288 147 -288 137 0
-2 -19 2 -41 11 -23 8 -51 16 -63 19 -12 2 -52 11 -91 19 -119 25 -291 37
-420 28z m240 -197 c267 -27 510 -123 715 -284 68 -53 210 -194 210 -208 0 -7
4 -13 9 -13 13 0 133 -183 157 -237 10 -24 21 -43 26 -43 4 0 8 -10 8 -23 0
-13 4 -27 8 -32 10 -11 50 -120 55 -150 2 -11 7 -27 10 -35 4 -8 8 -26 9 -40
2 -14 6 -30 10 -35 4 -6 5 -23 4 -38 -2 -15 0 -27 3 -27 6 0 9 -39 14 -192 1
-54 0 -98 -3 -98 -3 0 -5 -15 -6 -33 0 -17 -4 -52 -8 -77 -4 -25 -9 -54 -10
-65 -2 -11 -6 -27 -9 -35 -3 -8 -11 -35 -17 -59 -6 -24 -16 -55 -22 -70 -6
-14 -12 -28 -13 -31 -27 -80 -149 -300 -166 -300 -5 0 -9 -6 -9 -12 -1 -17
-68 -96 -165 -193 -145 -144 -254 -219 -405 -278 -14 -5 -33 -13 -42 -18 -18
-9 -33 4 -23 20 3 5 2 12 -3 14 -14 9 -4 258 13 327 4 14 8 34 9 45 2 11 4 20
5 20 2 0 4 9 6 20 2 11 24 70 48 132 25 62 42 115 39 118 -3 3 -1 5 5 5 5 0
10 6 11 13 0 6 4 26 8 42 8 35 9 150 1 184 -7 24 -17 40 -54 81 l-23 26 35 33
c41 38 64 79 70 121 2 16 6 34 10 40 3 5 3 16 -2 23 -4 6 -7 21 -8 33 -1 57
-99 144 -163 144 -111 0 -217 -141 -215 -287 1 -29 -1 -53 -3 -53 -2 0 -17 12
-34 26 -38 34 -77 54 -106 54 -25 0 -32 14 -14 25 6 4 8 10 5 15 -3 5 0 12 7
17 18 11 54 64 63 93 14 41 13 113 -2 142 -7 15 -13 30 -13 33 -1 18 -18 45
-51 76 -40 38 -86 54 -149 50 -48 -3 -155 -57 -170 -87 -8 -13 -17 -24 -22
-24 -4 0 -8 -9 -8 -20 0 -11 -4 -20 -8 -20 -13 0 -5 -90 11 -136 9 -23 27 -60
41 -83 29 -45 33 -63 14 -59 -21 4 -72 -13 -91 -29 -9 -9 -22 -33 -27 -55 -8
-26 -16 -38 -29 -38 -27 0 -33 11 -17 35 8 12 17 42 20 66 2 24 5 46 6 49 6
16 -1 83 -11 102 -31 60 -110 110 -174 110 -61 0 -155 -53 -155 -88 0 -6 -6
-17 -14 -23 -8 -7 -15 -20 -15 -29 0 -9 -1 -39 -1 -65 -2 -50 18 -104 45 -127
8 -7 15 -17 15 -22 0 -5 10 -18 22 -28 l22 -17 -23 -12 c-34 -19 -61 -44 -61
-58 0 -7 -4 -13 -10 -13 -28 0 -2 -136 33 -172 22 -23 77 -118 77 -133 0 -8 4
-15 8 -15 4 0 14 -21 21 -47 8 -27 16 -52 20 -58 6 -11 7 -13 16 -70 4 -22 9
-43 12 -47 2 -5 -2 -8 -9 -8 -10 0 -10 -2 1 -9 11 -7 14 -38 14 -143 -1 -73
-4 -153 -7 -178 -4 -25 -7 -53 -7 -62 0 -26 -18 -22 -105 23 -44 23 -89 47
-101 53 -13 6 -23 14 -23 19 0 4 -5 7 -11 7 -6 0 -16 6 -23 13 -7 6 -28 23
-46 37 -19 14 -47 36 -64 50 -59 48 -212 210 -198 210 4 0 -4 7 -16 16 -12 8
-20 19 -17 24 3 4 1 10 -3 12 -14 6 -71 95 -65 102 4 3 2 6 -4 6 -11 0 -73
116 -73 137 0 6 -4 13 -8 15 -10 4 -62 148 -65 177 -1 11 -4 21 -8 21 -4 0 -6
8 -4 18 1 9 -1 24 -6 33 -4 9 -9 33 -11 53 -1 20 -5 36 -8 36 -3 0 -6 50 -8
112 -2 62 -6 116 -8 120 -3 4 -1 8 3 8 5 0 9 24 10 53 1 28 4 66 8 82 22 109
49 205 74 270 16 41 26 75 22 75 -3 0 1 5 9 10 8 5 15 13 15 17 1 4 12 28 25
53 13 25 24 48 25 52 0 4 8 17 18 28 9 11 17 23 17 26 0 6 46 72 90 129 31 41
219 222 266 256 147 107 372 209 514 233 19 3 45 8 58 10 13 3 53 8 90 12 37
3 68 7 69 8 3 3 127 -3 188 -9z"/>
<path d="M3597 1902 l-79 -3 41 -29 c22 -17 43 -30 45 -30 9 0 107 -70 100
-71 -5 -1 -110 -3 -234 -4 -124 -1 -229 -3 -235 -4 -6 0 -9 -37 -7 -93 l3 -93
237 1 c130 0 243 -2 249 -4 7 -2 -37 -44 -99 -93 -145 -117 -144 -116 -143
-184 l2 -56 119 -80 c65 -43 115 -79 109 -80 -5 0 -115 -1 -243 -1 l-233 -1 2
-53 c2 -30 0 -56 -2 -59 -7 -7 2 -65 10 -66 3 -1 128 -2 276 -3 l270 -2 1 -45
c2 -45 1 -46 -50 -73 -136 -74 -227 -123 -291 -158 -38 -21 -98 -53 -132 -70
l-61 -32 -244 140 -243 140 -1 530 c-1 291 -2 535 -3 542 -1 9 -28 12 -99 12
l-98 0 1 -81 c1 -44 -3 -82 -7 -85 -5 -3 -5 -11 0 -17 11 -15 9 -618 -2 -636
-6 -8 -5 -12 0 -8 12 7 12 -293 0 -312 -6 -9 -5 -12 2 -7 8 4 10 -3 7 -24 -2
-17 1 -30 8 -30 6 0 104 -54 219 -120 114 -66 212 -120 217 -120 5 0 11 -3 13
-8 2 -4 60 -40 130 -80 l126 -73 64 37 c34 21 65 40 68 44 3 3 28 19 55 35 28
15 76 46 108 67 31 21 57 35 57 31 0 -4 4 -3 8 3 4 6 75 53 157 104 83 51 152
96 155 100 3 5 5 69 5 144 -1 75 3 136 8 136 4 0 3 9 -3 19 -7 14 -7 22 0 26
6 4 7 11 4 17 -10 16 -11 50 -3 74 4 12 5 25 1 29 -4 4 -7 10 -7 15 0 8 -100
90 -111 90 -4 0 -14 8 -23 18 -9 10 -29 26 -45 36 l-30 19 26 21 c14 12 36 29
49 38 32 23 65 48 97 75 l27 21 0 172 1 172 -26 16 c-14 9 -27 19 -30 22 -34
38 -112 49 -293 42z"/>
</g>
</svg>
